<svg width="15" height="24" viewBox="0 0 15 24" fill="none" xmlns="http://www.w3.org/2000/svg">
<g clip-path="url(#clip0_103_74)">
<path d="M14.5594 7.05935C15.1453 6.47341 15.1453 5.52185 14.5594 4.93591C13.9734 4.34998 13.0219 4.34998 12.4359 4.93591L7.50001 9.87654L2.55938 4.9406C1.97344 4.35466 1.02188 4.35466 0.435944 4.9406C-0.149994 5.52654 -0.149994 6.4781 0.435944 7.06404L5.37657 12L0.440631 16.9406C-0.145306 17.5265 -0.145306 18.4781 0.440631 19.064C1.02657 19.65 1.97813 19.65 2.56407 19.064L7.50001 14.1234L12.4406 19.0594C13.0266 19.6453 13.9781 19.6453 14.5641 19.0594C15.15 18.4734 15.15 17.5219 14.5641 16.9359L9.62344 12L14.5594 7.05935Z" fill="black"/>
</g>
<defs>
<clipPath id="clip0_103_74">
<rect width="15" height="24" fill="white"/>
</clipPath>
</defs>
</svg>
