<svg width="25" height="25" viewBox="0 0 25 25" fill="none" xmlns="http://www.w3.org/2000/svg">
<g clip-path="url(#clip0_95_128)">
<path d="M14.8438 3.125H7.8125V11.7188H5.46875V13.2812H7.8125V15.625H5.46875V17.1875H7.8125V21.875H9.375V17.1875H16.4062V15.625H9.375V13.2812H14.8438C16.0865 13.2799 17.278 12.7856 18.1568 11.9068C19.0356 11.028 19.5299 9.83653 19.5312 8.59375V7.8125C19.5299 6.56972 19.0356 5.37824 18.1568 4.49947C17.278 3.62069 16.0865 3.12639 14.8438 3.125ZM17.9688 8.59375C17.9678 9.42227 17.6383 10.2166 17.0524 10.8024C16.4666 11.3883 15.6723 11.7178 14.8438 11.7188H9.375V4.6875H14.8438C15.6723 4.68843 16.4666 5.01797 17.0524 5.60382C17.6383 6.18967 17.9678 6.98398 17.9688 7.8125V8.59375Z" fill="black"/>
</g>
<defs>
<clipPath id="clip0_95_128">
<rect width="25" height="25" fill="white"/>
</clipPath>
</defs>
</svg>
