<svg width="125" height="125" viewBox="0 0 125 125" fill="none" xmlns="http://www.w3.org/2000/svg">
<g clip-path="url(#clip0_154_97)">
<path d="M87.8231 46.875C89.4481 46.875 90.9741 46.2396 92.1043 45.1094L110.104 27.4062L106.453 23.6927L88.4377 41.4114C88.0106 41.8385 87.6877 41.8906 87.1825 41.3802L77.5158 32.0104L73.896 35.75L83.5366 45.0885C84.6825 46.2396 86.2085 46.8698 87.8283 46.8698L87.8231 46.875Z" fill="#3A5EA5"/>
<path d="M104.167 76.1719C102.474 76.6927 100.729 77.0781 98.9583 77.3958V93.75H52.0833V109.375C52.0833 115.12 47.4115 119.792 41.6667 119.792C35.9219 119.792 31.25 115.12 31.25 109.375V15.625C31.25 8.8125 27.1875 5.20833 27.1875 5.20833H57.4271C59.0208 3.33333 60.7656 1.58854 62.651 0H15.625C7.01042 0 0 7.01042 0 15.625V31.25H26.0417V109.375C26.0417 117.99 33.0521 125 41.6667 125H109.375C117.99 125 125 117.99 125 109.375V93.75H104.167V76.1719ZM26.0417 26.0417H5.20833V15.625C5.20833 9.88021 9.88021 5.20833 15.625 5.20833L18.8698 5.77604C23.0208 7.14583 26.0417 11.0208 26.0417 15.625V26.0417ZM119.792 98.9583V109.375C119.792 115.12 115.12 119.792 109.375 119.792H53.3021C55.7813 117.026 57.2917 113.375 57.2917 109.375V98.9583H119.792Z" fill="#3A5EA5"/>
<path d="M91.1457 67.7083C109.812 67.7083 125 52.5208 125 33.8542C125 15.1875 109.812 0 91.1457 0C72.479 0 57.2915 15.1875 57.2915 33.8542C57.2915 52.5208 72.479 67.7083 91.1457 67.7083ZM91.1457 5.20833C106.937 5.20833 119.792 18.0573 119.792 33.8542C119.792 49.651 106.937 62.5 91.1457 62.5C75.354 62.5 62.4998 49.651 62.4998 33.8542C62.4998 18.0573 75.354 5.20833 91.1457 5.20833Z" fill="#3A5EA5"/>
</g>
<defs>
<clipPath id="clip0_154_97">
<rect width="125" height="125" fill="white"/>
</clipPath>
</defs>
</svg>
