<svg width="125" height="125" viewBox="0 0 125 125" fill="none" xmlns="http://www.w3.org/2000/svg">
<g clip-path="url(#clip0_154_115)">
<path d="M78.125 12.1771V2.60417C78.125 1.16667 76.9583 0 75.5208 0C74.0833 0 72.9167 1.16667 72.9167 2.60417V10.6042C72.0677 10.4844 71.1979 10.4167 70.3125 10.4167H57.2917V2.60417C57.2917 1.16667 56.125 0 54.6875 0C53.25 0 52.0833 1.16667 52.0833 2.60417V10.4167H36.4583V2.60417C36.4583 1.16667 35.2917 0 33.8542 0C32.4167 0 31.25 1.16667 31.25 2.60417V10.4167H18.2292C17.3438 10.4167 16.474 10.4792 15.625 10.6042V2.60417C15.625 1.16667 14.4583 0 13.0208 0C11.5833 0 10.4167 1.16667 10.4167 2.60417V12.1771C4.26562 15.1094 0 21.3906 0 28.6458V101.562C0 114.484 10.5156 125 23.4375 125H65.1042C78.026 125 88.5417 114.484 88.5417 101.562V28.6458C88.5417 21.3906 84.276 15.1094 78.125 12.1771ZM83.3333 101.562C83.3333 111.615 75.1562 119.792 65.1042 119.792H23.4375C13.3854 119.792 5.20833 111.615 5.20833 101.562V28.6458C5.20833 21.4635 11.0521 15.625 18.2292 15.625H70.3125C77.4896 15.625 83.3333 21.4635 83.3333 28.6458V101.562ZM67.7083 33.8542C67.7083 35.2917 66.5417 36.4583 65.1042 36.4583H23.4375C22 36.4583 20.8333 35.2917 20.8333 33.8542C20.8333 32.4167 22 31.25 23.4375 31.25H65.1042C66.5417 31.25 67.7083 32.4167 67.7083 33.8542ZM67.7083 54.6875C67.7083 56.125 66.5417 57.2917 65.1042 57.2917H23.4375C22 57.2917 20.8333 56.125 20.8333 54.6875C20.8333 53.25 22 52.0833 23.4375 52.0833H65.1042C66.5417 52.0833 67.7083 53.25 67.7083 54.6875ZM52.0833 75.5208C52.0833 76.9583 50.9167 78.125 49.4792 78.125H23.4375C22 78.125 20.8333 76.9583 20.8333 75.5208C20.8333 74.0833 22 72.9167 23.4375 72.9167H49.4792C50.9167 72.9167 52.0833 74.0833 52.0833 75.5208ZM111.979 0C104.802 0 98.9583 5.83854 98.9583 13.0208V105.51C98.9583 110.312 100.906 115.005 104.297 118.401L110.135 124.24C110.646 124.75 111.312 125 111.979 125C112.646 125 113.313 124.745 113.823 124.24L119.661 118.401C123.057 115.01 125 110.312 125 105.51V13.0208C125 5.83854 119.156 0 111.979 0ZM119.792 105.51C119.792 108.938 118.401 112.297 115.979 114.719L111.979 118.719L107.979 114.719C105.557 112.297 104.167 108.943 104.167 105.51V13.0208C104.167 8.71354 107.672 5.20833 111.979 5.20833C116.286 5.20833 119.792 8.71354 119.792 13.0208V105.51Z" fill="#3A5EA5"/>
</g>
<defs>
<clipPath id="clip0_154_115">
<rect width="125" height="125" fill="white"/>
</clipPath>
</defs>
</svg>
