<svg width="125" height="125" viewBox="0 0 125 125" fill="none" xmlns="http://www.w3.org/2000/svg">
<path d="M114.583 57.2917H91.1458C85.401 57.2917 80.7292 61.9635 80.7292 67.7083V74.3177C79.1979 73.4271 77.4167 72.9167 75.5208 72.9167H49.4792C43.7344 72.9167 39.0625 77.5885 39.0625 83.3333V89.9427C37.5312 89.0521 35.75 88.5416 33.8542 88.5416H10.4167C4.67188 88.5416 0 93.2135 0 98.9583V125H125V67.7083C125 61.9635 120.328 57.2917 114.583 57.2917ZM44.2708 83.3333C44.2708 80.4635 46.6042 78.125 49.4792 78.125H75.5208C78.3958 78.125 80.7292 80.4635 80.7292 83.3333V119.792H44.2708V83.3333ZM5.20833 98.9583C5.20833 96.0885 7.54167 93.75 10.4167 93.75H33.8542C36.7292 93.75 39.0625 96.0885 39.0625 98.9583V119.792H5.20833V98.9583ZM119.792 119.792H85.9375V67.7083C85.9375 64.8385 88.2708 62.5 91.1458 62.5H114.583C117.458 62.5 119.792 64.8385 119.792 67.7083V119.792ZM47.6771 55.5573L50.9219 58.026L62.5 50.5208L73.9844 58.026L77.3229 55.5156L73.6406 43.2031L83.3333 35.3906V31.25H69.3594L64.4323 17.5729H60.4323L55.6354 31.25H41.6615V35.3906L51.3542 43.2031L47.6719 55.5573H47.6771ZM51.2917 36.4583H59.3333L62.5 27.4219L65.6667 36.4583H73.7083L67.6458 41.3437L69.9844 49.1667L62.5 44.3125L55.0104 49.1667L57.349 41.3437L51.2917 36.4583ZM6.01042 71.1823L9.25521 73.651L20.8333 66.1458L32.3177 73.651L35.6563 71.1406L31.974 58.8281L41.6667 51.0156V46.875H27.6927L22.7656 33.1979H18.7656L13.9688 46.875H0V51.0156L9.69271 58.8281L6.01042 71.1823ZM9.625 52.0833H17.6667L20.8333 43.0469L24 52.0833H32.0417L25.9792 56.9687L28.3177 64.7917L20.8333 59.9375L13.3438 64.7917L15.6823 56.9687L9.61979 52.0833H9.625ZM111.026 15.625L106.099 1.94791H102.099L97.3021 15.625H83.3281V19.7656L93.0208 27.5781L89.3385 39.9323L92.5833 42.401L104.161 34.8958L115.646 42.401L118.984 39.8906L115.302 27.5781L124.995 19.7656V15.625H111.026ZM109.313 25.7187L111.651 33.5417L104.167 28.6875L96.6771 33.5417L99.0156 25.7187L92.9531 20.8333H100.995L104.161 11.7969L107.328 20.8333H115.37L109.307 25.7187H109.313Z" fill="#3A5EA5"/>
</svg>
