<svg width="139" height="139" viewBox="0 0 139 139" fill="none" xmlns="http://www.w3.org/2000/svg">
<g clip-path="url(#clip0_154_92)">
<path d="M22.1461 32.7473C21.048 31.8174 20.9192 30.1705 21.8485 29.0777C35.2177 13.3489 55.4224 5.21972 75.9026 7.32887C96.3828 9.43803 114.507 21.5145 124.39 39.6379C125.076 40.9024 124.615 42.4832 123.35 43.1698C122.873 43.4348 122.345 43.527 121.837 43.4747C121.013 43.3899 120.241 42.9124 119.813 42.1301C110.754 25.5157 94.1396 14.4429 75.369 12.5098C56.5985 10.5767 38.0708 18.0304 25.8208 32.4503C24.8909 33.5483 23.243 33.6875 22.1461 32.7473ZM113.179 106.55C100.924 120.969 82.4013 128.423 63.6308 126.49C44.8602 124.557 28.2405 113.484 19.1865 96.87C18.4994 95.6107 16.9191 95.1443 15.6546 95.8308C14.3901 96.5174 13.9284 98.1035 14.6155 99.3628C24.4932 117.486 42.617 129.562 63.1024 131.672C83.5878 133.781 103.787 125.652 117.156 109.923C118.086 108.825 117.957 107.183 116.859 106.253C115.771 105.325 114.119 105.458 113.189 106.551L113.179 106.55ZM48.3199 46.3753C55.4593 47.1106 60.6742 53.517 59.9384 60.6615L58.3377 76.2043C57.6019 83.3488 51.1908 88.558 44.0515 87.8228C36.9122 87.0875 31.6973 80.681 32.433 73.5365L34.0337 57.9937C34.7695 50.8492 41.1806 45.6401 48.3199 46.3753ZM47.7864 51.5562C43.5018 51.115 39.6559 54.2427 39.2147 58.5273L37.614 74.0701C37.1727 78.3547 40.3004 82.2006 44.585 82.6418C48.8697 83.0831 52.7155 79.9554 53.1568 75.6708L54.7574 60.128C55.1987 55.8434 52.071 51.9975 47.7864 51.5562ZM79.4055 49.5767C86.5449 50.3119 91.7597 56.7184 91.024 63.8629L89.4233 79.4057C88.6875 86.5502 82.2764 91.7594 75.1371 91.0241C67.9977 90.2889 62.7829 83.8824 63.5186 76.7379L65.1193 61.1951C65.8551 54.0506 72.2662 48.8414 79.4055 49.5767ZM78.872 54.7576C74.5873 54.3163 70.7415 57.444 70.3002 61.7287L68.6996 77.2714C68.2583 81.5561 71.386 85.4019 75.6706 85.8432C79.9553 86.2844 83.8011 83.1568 84.2424 78.8721L85.843 63.3293C86.2843 59.0447 83.1566 55.1988 78.872 54.7576ZM120.294 85.2028C117.46 84.911 114.928 86.9698 114.637 89.8037C114.345 92.6377 116.403 95.1692 119.237 95.4611C122.071 95.7529 124.603 93.6941 124.895 90.8602C125.187 88.0262 123.128 85.4947 120.294 85.2028ZM101.756 62.3502C104.616 62.6447 107.178 60.542 107.476 57.651C107.774 54.7601 105.694 52.1793 102.834 51.8847C99.9741 51.5902 97.4119 53.693 97.1142 56.5839C96.8165 59.4749 98.8964 62.0557 101.756 62.3502ZM21.0041 82.8313C20.8568 84.2612 21.8978 85.5413 23.3278 85.6885C24.7577 85.8358 26.0377 84.7948 26.185 83.3648L29.7236 49.0049C29.9119 47.176 28.9914 45.4372 27.3745 44.5638C25.772 43.7024 23.8011 43.8764 22.082 45.3173L13.9591 54.387C13.0002 55.4611 13.0928 57.1042 14.1617 58.0625C15.2358 59.0214 16.8738 58.9282 17.8419 57.8656L24.3249 50.5852L21.0041 82.8313ZM94.4028 92.5213C94.8256 92.8894 95.3323 93.1039 95.8556 93.1578C96.6638 93.2411 97.5006 92.945 98.0758 92.2922L127.715 58.6934C128.67 57.6084 128.561 55.9689 127.487 55.0153C126.411 54.072 124.766 54.1801 123.814 55.2443L94.1742 88.8431C93.2195 89.9281 93.3281 91.5676 94.4028 92.5213Z" fill="#3A5EA5"/>
</g>
<defs>
<clipPath id="clip0_154_92">
<rect width="125" height="125" fill="white" transform="translate(13.7314 0.926147) rotate(5.87988)"/>
</clipPath>
</defs>
</svg>
