<svg width="209" height="359" viewBox="0 0 209 359" fill="none" xmlns="http://www.w3.org/2000/svg">
<g clip-path="url(#clip0_375_756)">
<path fill-rule="evenodd" clip-rule="evenodd" d="M0 0.000856176C33.4482 53.0932 92.1519 3.79029 121.821 97.8224C118.374 75.269 114.311 61.2491 109.633 55.7636C135.992 69.5283 154.695 91.3531 165.742 121.239C166.981 131.161 166.895 142.628 165.485 155.639C168.479 146.426 169.541 137.242 168.671 128.086C173.113 139.273 175.335 144.867 175.335 144.867C176.02 153.053 175.131 161.602 172.666 170.513C175.073 166.493 177.263 161.628 179.235 155.92C186.124 178.964 189.368 197.35 188.968 211.081C167.775 170.943 140.143 136.213 106.074 106.891C92.3206 93.8694 78.0319 83.1278 61.9349 73.1534C22.7041 48.844 2.15499 24.3043 0.000856176 0L0 0.000856176Z" fill="url(#paint0_linear_375_756)"/>
<path fill-rule="evenodd" clip-rule="evenodd" d="M84.6272 189.07C127.611 190.543 159.433 202.618 180.095 225.296C132.553 156.604 112.644 123.838 57.7818 81.5235C31.9493 62.5644 9.1844 44.1215 0.713399 12.395C-1.1933 46.2525 4.94805 73.6279 23.0613 93.5408C45.1678 96.9604 60.3692 102.568 68.6647 110.366C56.5583 104.781 43.8929 103.256 30.6684 105.793C44.1472 128.903 50.8862 140.458 50.8862 140.458C64.3461 138.931 76.699 140.875 87.9466 146.289C74.4618 142.342 62.8829 141.888 53.2107 144.928C62.0319 160.148 66.4429 167.757 66.4429 167.757C77.0723 171.484 90.1795 174.243 105.765 176.035C122.117 178.785 131.977 182.521 135.347 187.246C124.884 181.438 107.977 182.046 84.6272 189.07V189.07Z" fill="url(#paint1_linear_375_756)"/>
<path fill-rule="evenodd" clip-rule="evenodd" d="M207.988 302.355C209.399 297.123 207.988 261.967 207.988 261.967C180.451 191.195 127.393 121.758 58.1699 76.1484C123.926 126.449 177.216 192.925 198.138 259.467C200.745 262.214 205.439 298.204 207.988 302.355Z" fill="url(#paint2_linear_375_756)"/>
<path fill-rule="evenodd" clip-rule="evenodd" d="M208.181 314.549C208.181 320.247 208.181 323.096 208.181 323.096C146.094 214.398 73.3794 245.878 38.3516 201.747C81.9181 245.436 142.807 210.057 208.181 314.549Z" fill="#5795CD"/>
<path fill-rule="evenodd" clip-rule="evenodd" d="M206.685 353.653C207.525 357.227 207.944 359.014 207.944 359.014C152.985 299.979 113.971 331.947 86.8682 307.959C120.633 328.946 150.283 297.739 206.685 353.653Z" fill="#5795CD"/>
<path fill-rule="evenodd" clip-rule="evenodd" d="M97.8048 228.802C141.387 240.085 168.818 255.606 200.367 300.893C200.537 292.178 198.868 281.243 195.362 268.089C188.266 254.555 181.695 244.443 175.648 237.754C177.141 246.245 177.892 254.723 177.903 263.187C175.24 246.785 170.213 233.883 162.821 224.483C149.331 211.367 124.461 200.687 88.2131 192.444C91.9965 197.403 94.6216 204.969 96.0874 215.141C92.3219 203.658 86.0119 195.159 77.1573 189.645C43.3503 180.931 18.0743 165.051 1.33008 142.005C14.4964 191.577 51.3316 216.559 97.8057 228.803L97.8048 228.802Z" fill="url(#paint3_linear_375_756)"/>
<path fill-rule="evenodd" clip-rule="evenodd" d="M127.265 315.491C155.283 316.126 179.422 325.822 199.682 344.582C198.545 339.276 195.977 332.886 191.979 325.414C185.752 318.221 180.33 313.029 175.714 309.836C177.828 314.769 179.49 319.8 180.701 324.928C176.752 315.367 171.87 308.264 166.052 303.619C156.009 297.591 139.417 294.657 116.276 294.823C119.276 297.289 121.943 301.501 124.28 307.456C120.363 301.033 115.329 296.781 109.179 294.699C87.4506 294.231 69.8716 288.205 56.4434 276.621C71.4787 304.789 97.3583 314.686 127.266 315.491L127.265 315.491Z" fill="url(#paint4_linear_375_756)"/>
<path fill-rule="evenodd" clip-rule="evenodd" d="M74.248 273.102C84.9228 277.786 95.5633 281.611 103.861 283.493C118.623 273.908 133.579 270.201 148.728 272.37C132.149 274.353 120.275 278.426 113.106 284.589C133.608 287.888 147.274 290.849 154.104 293.476C167.9 291.644 185.368 298.672 193.723 303.604C123.365 198.782 43.3469 272.643 1.49615 142.538C-3.3832 171.053 9.10926 199.861 24.9759 228.919C36.4692 228.309 47.9771 230.364 59.4995 235.08C51.4078 232.735 40.6302 231.863 27.1669 232.461C36.5514 247.81 51.0739 260.779 70.7334 271.369C76.052 268.369 85.4879 265.863 99.0437 263.853C88.0555 266.794 79.7909 269.877 74.2497 273.102H74.248Z" fill="url(#paint5_linear_375_756)"/>
<path fill-rule="evenodd" clip-rule="evenodd" d="M118.06 349.783C125.447 351.149 132.685 351.98 138.167 351.938C146.015 343.75 154.85 339.222 164.672 338.35C154.565 342.037 147.717 346.341 144.128 351.263C157.474 350.311 166.482 350.156 171.154 350.798C179.537 347.616 191.53 349.451 197.497 351.314C137.033 294.11 102.196 352.354 56.7754 276.909C57.9158 295.514 66.4091 313.438 80.643 329.327C87.7621 327.252 95.2836 326.845 103.206 328.106C97.7845 327.827 90.8957 328.868 82.5394 331.227C90.6877 339.472 101.708 345.468 115.599 349.214C118.493 346.548 124.043 343.587 132.25 340.328C125.791 343.792 121.061 346.944 118.06 349.783H118.06Z" fill="url(#paint6_linear_375_756)"/>
</g>
<defs>
<linearGradient id="paint0_linear_375_756" x1="52" y1="34.5" x2="210" y2="211" gradientUnits="userSpaceOnUse">
<stop stop-color="#E6B740"/>
<stop offset="1" stop-color="#CF602D"/>
</linearGradient>
<linearGradient id="paint1_linear_375_756" x1="25.9543" y1="67.7023" x2="172.839" y2="202.99" gradientUnits="userSpaceOnUse">
<stop stop-color="#CF602D"/>
<stop offset="1" stop-color="#E6B740"/>
</linearGradient>
<linearGradient id="paint2_linear_375_756" x1="46.823" y1="86.9363" x2="191.953" y2="239.567" gradientUnits="userSpaceOnUse">
<stop stop-color="#E6B740"/>
<stop offset="1" stop-color="#CF602D"/>
</linearGradient>
<linearGradient id="paint3_linear_375_756" x1="100.854" y1="142.005" x2="100.854" y2="300.893" gradientUnits="userSpaceOnUse">
<stop stop-color="#5795CD"/>
<stop offset="1" stop-color="#3A5EA5"/>
</linearGradient>
<linearGradient id="paint4_linear_375_756" x1="105.5" y1="287" x2="174" y2="352" gradientUnits="userSpaceOnUse">
<stop stop-color="#5795CD"/>
<stop offset="1" stop-color="#3A5EA5"/>
</linearGradient>
<linearGradient id="paint5_linear_375_756" x1="19.7883" y1="177.174" x2="142.899" y2="275.149" gradientUnits="userSpaceOnUse">
<stop stop-color="#5795CD"/>
<stop offset="1" stop-color="#3A5EA5"/>
</linearGradient>
<linearGradient id="paint6_linear_375_756" x1="83.5" y1="314" x2="190" y2="352" gradientUnits="userSpaceOnUse">
<stop stop-color="#5795CD"/>
<stop offset="1" stop-color="#3A5EA5"/>
</linearGradient>
<clipPath id="clip0_375_756">
<rect width="209" height="359" fill="white"/>
</clipPath>
</defs>
</svg>
