<svg width="150" height="187" viewBox="0 0 150 187" fill="none" xmlns="http://www.w3.org/2000/svg">
<g clip-path="url(#clip0_493_2)">
<path fill-rule="evenodd" clip-rule="evenodd" d="M6.25 0.000244141C29.3679 36.6947 69.9406 2.61969 90.4461 67.6094C88.0644 52.0214 85.2562 42.3317 82.0231 38.5403C100.241 48.0539 113.167 63.1381 120.802 83.7936C121.658 90.6514 121.599 98.5769 120.625 107.569C122.694 101.202 123.427 94.8543 122.826 88.5255C125.897 96.2576 127.432 100.124 127.432 100.124C127.906 105.781 127.291 111.69 125.588 117.85C127.251 115.071 128.765 111.709 130.129 107.764C134.89 123.69 137.132 136.398 136.856 145.888C122.207 118.147 103.111 94.1435 79.564 73.8781C70.0583 64.8778 60.1822 57.4538 49.0568 50.5604C21.9423 33.7594 7.74018 16.7989 6.25079 0.00103385L6.25 0.000244141Z" fill="url(#paint0_linear_493_2)"/>
<path fill-rule="evenodd" clip-rule="evenodd" d="M64.7394 130.675C94.4474 131.693 116.441 140.039 130.722 155.713C97.8629 108.237 84.103 85.5909 46.1853 56.3449C28.3308 43.2413 12.5975 30.4947 6.74259 8.56689C5.42457 31.9675 9.66924 50.888 22.1885 64.6503C37.4677 67.0139 47.9732 70.8897 53.7072 76.2787C45.3395 72.4186 36.5864 71.3651 27.4463 73.1183C36.7617 89.0909 41.4202 97.0772 41.4202 97.0772C50.7229 96.0221 59.2604 97.3662 67.0343 101.108C57.7142 98.3794 49.7121 98.0659 43.0264 100.167C49.123 110.686 52.172 115.945 52.172 115.945C59.5187 118.521 68.5774 120.428 79.3498 121.666C90.6505 123.567 97.4656 126.149 99.7953 129.414C92.5639 125.4 80.8786 125.82 64.7402 130.674L64.7394 130.675Z" fill="url(#paint1_linear_493_2)"/>
<path fill-rule="evenodd" clip-rule="evenodd" d="M148.537 186.482C149.512 182.865 149.999 181.057 149.999 181.057C130.968 132.143 94.2967 84.1522 46.4531 52.6287C91.9007 87.3931 128.732 133.338 143.192 179.329C144.993 181.228 146.775 183.612 148.536 186.482H148.537Z" fill="url(#paint2_linear_493_2)"/>
<path fill-rule="evenodd" clip-rule="evenodd" d="M133.097 166.046C81.6501 132.167 22.0454 170.789 0 144.81C9.40777 179.964 81.5727 136.859 133.097 166.046Z" fill="#CF602D"/>
<path fill-rule="evenodd" clip-rule="evenodd" d="M30.1907 173.483C23.7752 175.236 16.6038 171.827 8.67676 163.257C15.9002 170.721 20.242 176.709 21.7014 181.223C64.2287 168.164 100.517 167.879 130.566 180.371C103.36 166.635 69.9019 164.34 30.1899 173.484L30.1907 173.483Z" fill="#CF602D"/>
<path fill-rule="evenodd" clip-rule="evenodd" d="M22.709 172.369C59.0971 160.041 94.1656 161.073 127.916 175.469C95.8792 163.784 60.81 162.751 22.709 172.369Z" fill="#CF602D"/>
<path fill-rule="evenodd" clip-rule="evenodd" d="M25.2529 166.669C61.641 154.34 96.7095 155.373 130.46 169.768C98.4232 158.083 63.3539 157.05 25.2529 166.669Z" fill="#CF602D"/>
</g>
<defs>
<linearGradient id="paint0_linear_493_2" x1="71.5642" y1="0.000244141" x2="71.5642" y2="145.888" gradientUnits="userSpaceOnUse">
<stop stop-color="#E6B740"/>
<stop offset="1" stop-color="#CF602D"/>
</linearGradient>
<linearGradient id="paint1_linear_493_2" x1="24.188" y1="46.7918" x2="125.707" y2="140.295" gradientUnits="userSpaceOnUse">
<stop stop-color="#CF602D"/>
<stop offset="1" stop-color="#E6B740"/>
</linearGradient>
<linearGradient id="paint2_linear_493_2" x1="46.4539" y1="52.6295" x2="130.722" y2="155.712" gradientUnits="userSpaceOnUse">
<stop stop-color="#E6B740"/>
<stop offset="1" stop-color="#CF602D"/>
</linearGradient>
<clipPath id="clip0_493_2">
<rect width="150" height="186.482" fill="white"/>
</clipPath>
</defs>
</svg>
