<svg width="301" height="373" viewBox="0 0 301 373" fill="none" xmlns="http://www.w3.org/2000/svg">
<g clip-path="url(#clip0_412_2)">
<path fill-rule="evenodd" clip-rule="evenodd" d="M287.531 0.000488281C241.296 73.3895 160.15 5.23939 119.139 135.219C123.903 104.043 129.519 84.6633 135.985 77.0806C99.5496 96.1078 73.6977 126.276 58.4264 167.587C56.7143 181.303 56.8328 197.154 58.7818 215.139C54.6437 202.404 53.1764 189.709 54.3784 177.051C48.2376 192.515 45.1672 200.248 45.1672 200.248C44.2196 211.563 45.4499 223.38 48.8551 235.699C45.5289 230.141 42.5012 223.418 39.7735 215.527C30.2512 247.381 25.7673 272.797 26.3201 291.776C55.6166 236.295 93.81 188.287 140.903 147.756C159.915 129.756 179.667 114.908 201.918 101.121C256.147 67.5188 284.551 33.5978 287.53 0.00206769L287.531 0.000488281Z" fill="url(#paint0_linear_412_2)"/>
<path fill-rule="evenodd" clip-rule="evenodd" d="M170.551 261.35C111.136 263.386 67.1473 280.078 38.5868 311.426C104.305 216.473 131.824 171.182 207.66 112.69C243.369 86.4826 274.835 60.9893 286.545 17.1338C289.181 63.935 280.692 101.776 255.653 129.301C225.095 134.028 204.084 141.779 192.616 152.557C209.351 144.837 226.858 142.73 245.138 146.237C226.507 178.182 217.19 194.154 217.19 194.154C198.584 192.044 181.509 194.732 165.962 202.216C184.602 196.759 200.606 196.132 213.977 200.335C201.784 221.372 195.686 231.89 195.686 231.89C180.993 237.042 162.875 240.856 141.331 243.333C118.729 247.134 105.099 252.299 100.44 258.828C114.902 250.8 138.273 251.64 170.55 261.349L170.551 261.35Z" fill="url(#paint1_linear_412_2)"/>
<path fill-rule="evenodd" clip-rule="evenodd" d="M2.95648 372.963C1.0059 365.731 0.0314032 362.114 0.0314032 362.114C38.0953 264.287 111.437 168.304 207.124 105.257C116.229 174.786 42.5666 266.676 13.646 358.658C10.0433 362.455 6.48015 367.223 2.95806 372.963H2.95648Z" fill="url(#paint2_linear_412_2)"/>
<path fill-rule="evenodd" clip-rule="evenodd" d="M33.836 332.093C136.73 264.334 255.939 341.577 300.03 289.619C281.215 359.928 136.885 273.718 33.836 332.093Z" fill="#CF602D"/>
<path fill-rule="evenodd" clip-rule="evenodd" d="M239.65 346.966C252.481 350.472 266.824 343.654 282.678 326.514C268.231 341.441 259.547 353.418 256.628 362.446C171.574 336.327 98.9967 335.758 38.8985 360.742C93.3109 333.271 160.227 328.68 239.651 346.968L239.65 346.966Z" fill="#CF602D"/>
<path fill-rule="evenodd" clip-rule="evenodd" d="M254.612 344.739C181.836 320.081 111.699 322.147 44.1982 350.938C108.272 327.567 178.41 325.502 254.612 344.739Z" fill="#CF602D"/>
<path fill-rule="evenodd" clip-rule="evenodd" d="M249.525 333.337C176.749 308.679 106.612 310.745 39.1113 339.536C103.185 316.166 173.323 314.1 249.525 333.337Z" fill="#CF602D"/>
</g>
<defs>
<linearGradient id="paint0_linear_412_2" x1="156.903" y1="0.000488281" x2="156.903" y2="291.776" gradientUnits="userSpaceOnUse">
<stop stop-color="#E6B740"/>
<stop offset="1" stop-color="#CF602D"/>
</linearGradient>
<linearGradient id="paint1_linear_412_2" x1="251.654" y1="93.5837" x2="48.616" y2="280.591" gradientUnits="userSpaceOnUse">
<stop stop-color="#CF602D"/>
<stop offset="1" stop-color="#E6B740"/>
</linearGradient>
<linearGradient id="paint2_linear_412_2" x1="207.122" y1="105.259" x2="38.5865" y2="311.424" gradientUnits="userSpaceOnUse">
<stop stop-color="#E6B740"/>
<stop offset="1" stop-color="#CF602D"/>
</linearGradient>
<clipPath id="clip0_412_2">
<rect width="300" height="372.964" fill="white" transform="matrix(-1 0 0 1 300.03 0)"/>
</clipPath>
</defs>
</svg>
