<?xml version="1.0" encoding="UTF-8"?>
<!DOCTYPE svg PUBLIC "-//W3C//DTD SVG 1.1//EN" "http://www.w3.org/Graphics/SVG/1.1/DTD/svg11.dtd">
<!-- Creator: CorelDRAW 2021.5 -->
<svg xmlns="http://www.w3.org/2000/svg" xml:space="preserve" width="57.4226mm" height="71.3885mm" version="1.1" style="shape-rendering:geometricPrecision; text-rendering:geometricPrecision; image-rendering:optimizeQuality; fill-rule:evenodd; clip-rule:evenodd"
viewBox="0 0 21493.46 26720.94"
 xmlns:xlink="http://www.w3.org/1999/xlink"
 xmlns:xodm="http://www.corel.com/coreldraw/odm/2003">
 <defs>
  <style type="text/css">
   <![CDATA[
    .fil3 {fill:#3A5EA5}
    .fil2 {fill:url(#id0)}
    .fil1 {fill:url(#id1)}
    .fil0 {fill:url(#id2)}
   ]]>
  </style>
  <linearGradient id="id0" gradientUnits="userSpaceOnUse" x1="6656.31" y1="7541.2" x2="18731.14" y2="22312.03">
   <stop offset="0" style="stop-opacity:1; stop-color:#5795CD"/>
   <stop offset="1" style="stop-opacity:1; stop-color:#3A5EA5"/>
  </linearGradient>
  <linearGradient id="id1" gradientUnits="userSpaceOnUse" x1="3465.9" y1="6704.74" x2="18012.59" y2="20102.93">
   <stop offset="0" style="stop-opacity:1; stop-color:#3A5EA5"/>
   <stop offset="1" style="stop-opacity:1; stop-color:#5795CD"/>
  </linearGradient>
  <linearGradient id="id2" gradientUnits="userSpaceOnUse" xlink:href="#id0" x1="5226.13" y1="2879.21" x2="17995.37" y2="16886.69">
  </linearGradient>
 </defs>
 <g id="Слой_x0020_1">
  <metadata id="CorelCorpID_0Corel-Layer"/>
  <path class="fil0" d="M895.52 0c3312.55,5257.95 9126.26,375.31 12064.47,9687.75 -341.33,-2233.58 -743.67,-3622.02 -1206.98,-4165.32 2610.39,1363.17 4462.63,3524.63 5556.68,6484.32 122.66,982.66 114.2,2118.26 -25.45,3406.83 296.49,-912.4 401.63,-1821.96 315.5,-2728.75 439.92,1107.94 659.9,1661.91 659.9,1661.91 67.86,810.67 -20.21,1657.3 -264.26,2539.95 238.36,-398.18 455.23,-879.95 650.61,-1445.26 682.24,2282.13 1003.51,4103.07 963.87,5462.84 -2098.91,-3974.99 -4835.36,-7414.46 -8209.37,-10318.38 -1362.05,-1289.62 -2777.18,-2353.39 -4371.34,-3341.18 -3885.23,-2407.44 -5920.28,-4837.72 -6133.63,-7244.71z"/>
  <path class="fil1" d="M9276.51 18724.4c4256.88,145.83 7408.4,1341.69 9454.64,3587.62 -4708.32,-6802.85 -6680.04,-10047.79 -12113.24,-14238.46 -2558.32,-1877.65 -4812.79,-3704.07 -5651.72,-6846.08 -188.84,3353.08 419.37,6064.2 2213.25,8036.21 2189.34,338.63 3694.75,894.06 4516.3,1666.25 -1198.97,-553.11 -2453.3,-704.06 -3762.98,-452.91 1334.84,2288.68 2002.26,3433.03 2002.26,3433.03 1332.97,-151.14 2556.38,41.36 3670.27,577.55 -1335.48,-390.92 -2482.15,-435.84 -3440.03,-134.75 873.62,1507.21 1310.44,2260.79 1310.44,2260.79 1052.65,369.1 2350.74,642.42 3894.25,819.87 1619.31,272.34 2595.87,642.42 2929.6,1110.22 -1036.22,-575.15 -2710.59,-514.97 -5023.04,180.64z"/>
  <path class="fil2" d="M21283.85 26720.94c139.73,-518.19 209.61,-777.28 209.61,-777.28 -2727.14,-7008.86 -7981.6,-13885.53 -14837.15,-18402.47 6512.16,4981.45 11789.69,11564.92 13861.76,18154.9 258.12,272.08 513.39,613.71 765.79,1024.84z"/>
  <path class="fil3" d="M19071.5 23792.73c-7371.9,-4854.6 -15912.6,679.55 -19071.5,-3042.97 1348.05,5037.3 11688.59,-1139.23 19071.5,3042.97z"/>
  <path class="fil3" d="M1326.57 21710.74c631.97,426.29 1108.05,544.99 1428.27,356.07 -271.22,-367.75 547.34,-1867.66 2455.77,-4499.8 -1818.59,2550.17 -3113.27,3931.42 -3884.03,4143.72z"/>
  <path class="fil3" d="M4325.97 24858.37c-919.29,251.16 -1946.83,-237.27 -3082.69,-1465.32 1035.1,1069.46 1657.23,1927.55 1866.35,2574.27 6093.77,-1871.33 11293.55,-1912.05 15599.27,-122.14 -3898.33,-1968.16 -8692.63,-2297.1 -14382.94,-986.81z"/>
  <path class="fil3" d="M3253.89 24698.77c5214.01,-1766.6 10239.06,-1618.56 15075.1,444.11 -4590.6,-1674.33 -9615.66,-1822.37 -15075.1,-444.11z"/>
  <path class="fil3" d="M3618.46 23881.89c5214.01,-1766.6 10239.06,-1618.56 15075.1,444.11 -4590.6,-1674.33 -9615.66,-1822.37 -15075.1,-444.11z"/>
 </g>
</svg>
