<svg width="150" height="135" viewBox="0 0 150 135" fill="none" xmlns="http://www.w3.org/2000/svg">
<path d="M148.457 128.859C148.457 128.859 102.873 53.3521 51.9238 19.1454C66.4602 31.9546 112.082 70.5433 144.731 130.792C147.917 132.217 150 133.881 150 133.881L148.457 128.859Z" fill="white"/>
<path d="M0 6.05134C14.3235 9.68796 24.5894 19.4573 32.9559 31.1924C43.9783 34.194 55.817 35.7027 60.5435 41.1329C51.783 37.4996 43.5617 36.9491 37.1453 37.4456C45.1132 50.0533 51.4745 63.9636 58.5158 74.7406C74.3007 81.0006 91.7464 78.0665 101.914 87.6061C96.1159 84.7047 84.5688 87.2819 69.0203 87.2639C69.4988 87.6658 69.9773 88.0734 70.466 88.4382C92.8655 105.113 128.788 112.135 128.788 112.135C93.6851 60.4981 47.5429 3.61267 0 6.05134Z" fill="white"/>
<path d="M122.689 76.8461C123.967 72.4473 124.191 67.1601 123.809 61.6928C114.403 34.8213 101.441 18.1863 83.468 9.05981C88.2114 16.5087 92.9964 25.9538 93.0358 33.8001C90.4654 23.8416 81.0575 12.7482 73.165 4.81521C54.3041 -1.35015 30.6785 -1.18464 1.02148 2.99015C78.4758 0.783407 134.23 103.006 134.23 103.006C131.853 89.8805 129.096 78.2456 125.887 67.9741C125.199 71.2674 124.17 74.3208 122.689 76.8461Z" fill="white"/>
<path d="M44.1979 81.2822C44.1979 81.2822 20.7591 109.992 23.7607 111.681C29.2033 114.308 47.0295 106.987 74.0508 106.987C101.072 106.987 132.222 119.935 132.222 119.935C132.222 119.935 95.4156 109.109 74.0508 110.178C47.7804 111.493 22.448 118.811 11.376 121.999C14.0038 113.887 44.1979 81.2822 44.1979 81.2822Z" fill="white"/>
<path d="M18.5078 117.687L30.3296 134.011C30.3296 134.011 82.402 114.027 131.941 134.011C84.3081 110.697 36.3509 128.289 31.8304 128.008C27.31 127.726 18.5078 117.687 18.5078 117.687Z" fill="white"/>
<path d="M24.3237 122.752C24.3237 122.752 73.2999 101.361 131.47 124.817C82.1201 103.237 40.6491 114.683 24.3237 122.752Z" fill="white"/>
<path d="M25.8257 126.882C25.8257 126.882 72.7369 104.926 130.907 128.381C81.5571 106.802 42.1511 118.813 25.8257 126.882Z" fill="white"/>
</svg>
