<svg width="218" height="270" viewBox="0 0 218 270" fill="none" xmlns="http://www.w3.org/2000/svg">
<g clip-path="url(#clip0_412_13)">
<path fill-rule="evenodd" clip-rule="evenodd" d="M9.04297 0C42.4915 53.0922 101.195 3.78969 130.864 97.8221C127.417 75.2685 123.355 61.2487 118.677 55.7628C145.035 69.5274 163.738 91.3527 174.785 121.238C176.024 131.161 175.938 142.627 174.528 155.639C177.522 146.426 178.584 137.241 177.714 128.085C182.156 139.273 184.377 144.866 184.377 144.866C185.062 153.052 184.173 161.601 181.709 170.513C184.116 166.493 186.306 161.628 188.278 155.92C195.167 178.964 198.411 197.351 198.011 211.081C176.817 170.943 149.186 136.213 115.117 106.891C101.364 93.8691 87.0744 83.1277 70.9773 73.1535C31.7462 48.8444 11.1973 24.3046 9.04297 0Z" fill="white"/>
<path fill-rule="evenodd" clip-rule="evenodd" d="M93.6699 189.07C136.654 190.542 168.476 202.617 189.138 225.296C141.596 156.604 121.686 123.838 66.8247 81.5229C40.992 62.5633 18.2275 44.121 9.7564 12.3945C7.84959 46.2523 13.991 73.6278 32.1047 93.5402C54.2116 96.9595 69.4125 102.568 77.7081 110.365C65.6015 104.78 52.9358 103.256 39.7113 105.792C53.1899 128.902 59.9292 140.457 59.9292 140.457C73.3888 138.931 85.7422 140.875 96.9897 146.289C83.5047 142.341 71.9262 141.888 62.254 144.928C71.0754 160.147 75.4862 167.756 75.4862 167.756C86.1153 171.483 99.2228 174.243 114.808 176.035C131.159 178.785 141.02 182.522 144.39 187.246C133.927 181.438 117.02 182.046 93.6699 189.07V189.07Z" fill="white"/>
<path fill-rule="evenodd" clip-rule="evenodd" d="M214.914 269.815C216.324 264.582 217.03 261.966 217.03 261.966C189.493 191.194 136.436 121.757 67.2119 76.147C132.968 126.447 186.258 192.924 207.181 259.466C209.787 262.213 212.365 265.663 214.914 269.814L214.914 269.815Z" fill="white"/>
<path fill-rule="evenodd" clip-rule="evenodd" d="M192.575 240.247C118.137 191.228 31.897 247.109 0 209.521C13.6119 260.385 118.026 198.018 192.575 240.247Z" fill="white"/>
<path fill-rule="evenodd" clip-rule="evenodd" d="M43.6812 251.007C34.3987 253.544 24.0231 248.612 12.5537 236.211C23.0056 247.01 29.2876 255.675 31.3992 262.205C92.9311 243.309 145.436 242.898 188.913 260.972C149.549 241.098 101.139 237.777 43.6811 251.007H43.6812Z" fill="white"/>
<path fill-rule="evenodd" clip-rule="evenodd" d="M32.8564 249.396C85.5049 231.558 136.245 233.053 185.077 253.88C138.724 236.974 87.9832 235.479 32.8564 249.396Z" fill="white"/>
<path fill-rule="evenodd" clip-rule="evenodd" d="M36.5371 241.147C89.1856 223.309 139.926 224.804 188.758 245.632C142.404 228.725 91.6638 227.23 36.5371 241.147Z" fill="white"/>
</g>
<defs>
<clipPath id="clip0_412_13">
<rect width="217.03" height="269.815" fill="white"/>
</clipPath>
</defs>
</svg>
